# xmcd
#
# Track frame offsets:
#	150
#	15937
#	30034
#	44053
#	60366
#	72566
#	86542
#	99513
#	115002
#	129328
#	145776
#	161992
#	176543
#	194131
#
# Disc length: 2794 seconds
#
# Revision: 1
# Processed by: cddbd v1.5.2PL0 Copyright (c) Steve Scherf et al.
# Submitted via: audiograbber 1.83.01
#
DISCID=b70ae80e
DTITLE=Ad Aarts - Gewoon hollands
DYEAR=1900
DGENRE=Hollands
TTITLE0=Ad Aarts - Laat de zon in je hart
TTITLE1=Ad Aarts - Bij elke ster
TTITLE2=Ad Aarts - Laura
TTITLE3=Ad Aarts - Jij denkt maar dat je alles mag van mij
TTITLE4=Ad Aarts - Ik heb het heerlijk naar m'n zin
TTITLE5=Ad Aarts - Ik ga Leven
TTITLE6=Ad Aarts - Juanita
TTITLE7=Ad Aarts - Comment ca va 
TTITLE8=Ad Aarts - Jij bent te mooi voor mij
TTITLE9=Ad Aarts - Met tranen in je ogen ben je blind
TTITLE10=Ad Aarts - Sweet Caroline
TTITLE11=Ad Aarts - Laat me maar gaan
TTITLE12=Ad Aarts - Alles wat ik vraag
TTITLE13=Ad Aarts - Wees zuinig op m'n meissie
EXTD=
EXTT0=
EXTT1=
EXTT2=
EXTT3=
EXTT4=
EXTT5=
EXTT6=
EXTT7=
EXTT8=
EXTT9=
EXTT10=
EXTT11=
EXTT12=
EXTT13=
PLAYORDER=
